# xmcd
#
# Track frame offsets: 
#        150
#        26020
#        51069
#        79727
#        99710
#        117894
#        142377
#        158977
#        182498
#        204895
#        227451
#        247950
#
# Disc length: 3571 seconds
#
# Revision: 1
# Processed by: cddbd v1.5.2PL0 Copyright (c) Steve Scherf et al.
# Submitted via: ExactAudioCopy v1.0b3
#
DISCID=980df10c
DTITLE=Rusty Zinn - Reggae Blue
DYEAR=2007
DGENRE=Blues
TTITLE0=She Comes From Nothing
TTITLE1=The World Is In Rewind
TTITLE2=Just Take Your Time
TTITLE3=Pushin' Towards A Dream
TTITLE4=Everytime I See A Rainbow
TTITLE5=Reggae My Blues Away
TTITLE6=Can't Take My Eyes Off You
TTITLE7=My God
TTITLE8=You Got To Show It
TTITLE9=A Song Of My Own
TTITLE10=The Day After
TTITLE11=Heaven Is A Place Called Zion
EXTD=
EXTT0=
EXTT1=
EXTT2=
EXTT3=
EXTT4=
EXTT5=
EXTT6=
EXTT7=
EXTT8=
EXTT9=
EXTT10=
EXTT11=
PLAYORDER=
